<svg width="446" height="296" viewBox="0 0 446 296" fill="none" xmlns="http://www.w3.org/2000/svg">
<path d="M40.0382 294.837C40.0382 294.837 -23.8866 255.696 9.81002 178.556C31.1054 129.765 80.6136 144.607 78.2109 70.1222C75.8081 -4.3824 192.574 -10.7768 229.739 10.8286C266.904 32.4339 263.61 45.4359 339.917 33.6547C405.276 23.5593 422.463 95.8937 395.064 136.392C361.929 185.357 493.46 192.895 426.086 294.857H40.0382V294.837Z" fill="#ECF6FF"/>
<path d="M286.824 294.801H153.007L161.959 259.709H278.318L286.824 294.801Z" fill="#38B4F2"/>
<path d="M220.148 264.127C252.274 264.127 278.318 262.149 278.318 259.709C278.318 257.269 252.274 255.291 220.148 255.291C188.022 255.291 161.978 257.269 161.978 259.709C161.978 262.149 188.022 264.127 220.148 264.127Z" fill="#3A70BC"/>
<path d="M249.484 285.232C249.484 286.879 248.147 288.235 246.481 288.235C244.834 288.235 243.478 286.898 243.478 285.232C243.478 283.585 244.815 282.229 246.481 282.229C248.128 282.248 249.484 283.585 249.484 285.232Z" fill="white"/>
<path d="M261.169 285.234C261.169 286.881 259.832 288.237 258.166 288.237C256.499 288.237 255.162 286.9 255.162 285.234C255.162 283.587 256.499 282.23 258.166 282.23C259.832 282.23 261.169 283.587 261.169 285.234Z" fill="white"/>
<path d="M272.873 285.234C272.873 286.881 271.536 288.237 269.869 288.237C268.203 288.237 266.866 286.9 266.866 285.234C266.866 283.587 268.203 282.23 269.869 282.23C271.536 282.23 272.873 283.587 272.873 285.234Z" fill="white"/>
<path d="M53.6411 294.021H61.702C61.6438 293.595 61.4307 292.316 61.0625 291.134C60.9269 290.727 60.7719 290.32 60.5975 289.971C59.8224 288.402 54.8425 289.409 54.8425 289.409C54.8425 289.409 54.3774 289.797 54.0093 291.328C53.8543 291.986 53.7186 292.858 53.6411 294.021Z" fill="#233862"/>
<path d="M68.4455 170.884C68.4455 170.884 74.8786 172.008 76.3125 175.806C77.7658 179.603 85.9623 240.854 85.9623 240.854C85.9623 240.854 81.8931 244.071 73.1735 242.908C64.4732 241.746 68.4455 170.884 68.4455 170.884Z" fill="#D4D8E8"/>
<path d="M77.9978 291.485C78.0171 292.59 78.1528 293.617 78.5597 294.024H94.507C94.3132 293.443 93.7319 292.571 92.0849 292.319C90.2247 292.009 87.3181 291.117 85.6323 289.335C85.0316 288.695 84.586 287.939 84.3922 287.068C83.6365 283.735 78.1915 288.094 78.1915 288.094C78.1915 288.094 77.959 289.858 77.9978 291.485Z" fill="#233862"/>
<path d="M84.8569 289.859C83.0742 290.421 79.6639 292.165 77.513 291.351C76.1179 290.828 68.2896 268.215 67.7858 258.333C67.747 257.616 67.6114 256.608 67.3789 255.388C66.9138 252.83 66.1 249.323 65.1699 245.467C62.6702 235.1 59.2793 222.117 59.3568 217.971C59.473 211.538 78.54 216.614 78.54 216.614C78.54 216.614 79.8577 221.885 80.1096 229.539C80.6327 244.711 82.0473 270.327 85.9227 288.135C86.097 288.891 85.6126 289.627 84.8569 289.859Z" fill="#326EA0"/>
<path d="M71.642 217.989L61.5659 291.04C61.5659 291.04 57.148 292.106 53.6989 291.253C53.6989 291.253 50.7536 252.402 50.9861 243.004C51.238 233.606 48.874 217.872 51.5286 216.128C54.1833 214.404 71.642 217.989 71.642 217.989Z" fill="#326EA0"/>
<path d="M50.2498 174.237C50.2498 174.237 60.849 167.397 68.4448 170.884C69.6461 171.446 71.0413 172.997 72.0295 174.082C74.7811 177.104 80.1485 225.179 80.1485 225.179C80.1485 225.179 64.9182 230.333 50.2691 223.435V174.237H50.2498Z" fill="white"/>
<path d="M69.0457 170.707C69.0457 170.707 79.7611 175.106 81.2144 178.477C82.6677 181.849 87.3957 202.582 87.3957 205.024C87.3957 207.446 79.1798 205.566 77.8622 201.652C76.7577 198.397 73.0567 188.398 71.0996 182.062L69.0457 170.707Z" fill="#D4D8E8"/>
<path d="M66.817 174.061C64.4724 174.527 61.0427 174.023 58.5237 172.376C59.6669 169.663 60.132 167.512 60.287 166.136C60.287 166.059 60.3064 166.001 60.3064 165.923C60.3839 165.206 60.3645 164.722 60.3257 164.489H66.3714C66.3714 164.489 68.0184 165.245 68.0184 165.768C68.0184 166.039 68.0184 166.311 68.0184 166.563C68.0378 167.26 68.0572 167.861 68.0959 168.384C68.2122 170.089 68.406 170.884 68.406 170.884C68.406 170.884 69.181 173.596 66.817 174.061Z" fill="#EEA987"/>
<path d="M68.1347 168.387C63.5423 169.279 60.8877 166.76 60.287 166.12C60.2095 166.023 60.1514 165.965 60.1514 165.965C60.2095 165.946 60.2482 165.927 60.3064 165.907C62.0116 165.21 65.887 165.772 68.0572 166.566C68.0572 167.264 68.0959 167.864 68.1347 168.387Z" fill="#E2915A"/>
<path d="M58.7951 163.482C59.6089 167.9 65.3057 167.745 67.7666 167.474C68.4642 167.396 68.8905 167.299 68.8905 167.299C69.6656 167.086 70.1112 165.865 70.305 164.257C70.7119 161.079 70.2081 156.39 69.6656 155.208C68.8517 153.406 67.3209 151.468 61.6047 152.863C55.8498 154.258 57.7293 157.843 58.7951 163.482Z" fill="#EEA987"/>
<path d="M69.8593 152.745C69.0842 151.66 67.4178 150.343 65.9064 149.529C62.6704 147.785 58.5237 149.587 58.5043 149.587C53.8151 151.641 52.5943 155.226 55.0746 160.806C57.6905 166.697 60.1901 166.038 60.1901 166.038C60.1901 166.038 59.667 165.709 59.7057 163.868C59.7057 163.771 59.7057 163.674 59.7251 163.597C59.7445 163.228 59.6088 162.841 59.3375 162.589C58.7562 162.066 58.4656 160.496 58.95 160.07C59.5313 159.547 60.3645 160.186 60.6164 160.671C60.849 161.019 61.2559 161.136 61.6434 160.903C63.0967 159.973 62.1472 158.132 63.5424 157.008C64.9375 155.885 67.7665 156.834 69.8399 155.923C72.6108 154.916 70.4599 153.559 69.8593 152.745Z" fill="#233862"/>
<path d="M70.5178 245.35C69.5877 245.583 68.677 245.777 67.7663 245.932C66.9718 246.067 66.158 246.164 65.3635 246.242C60.8293 246.629 56.2757 245.99 50.947 244.478C49.7456 244.13 48.5055 243.742 47.2266 243.316C47.091 243.277 47.5754 229.19 48.1374 214.677C48.1955 213.185 48.2536 211.673 48.3117 210.181C48.3311 209.542 48.3699 208.922 48.3893 208.282C48.8931 195.435 49.3969 183.848 49.5131 183.228C49.765 181.813 49.9782 180.612 50.2301 179.565C50.947 176.523 51.8577 174.857 53.8148 173.423C54.0086 173.287 55.5781 172.493 56.9539 171.795C58.0971 171.233 59.1241 170.729 59.1241 170.729C59.5892 170.962 60.1317 172.008 60.6937 173.462C61.74 176.174 62.8833 180.321 63.6777 183.402V183.421C64.1815 185.417 64.5497 186.967 64.6659 187.413C64.8403 188.169 65.0729 189.622 65.3441 191.599C65.7123 194.292 66.158 197.954 66.6424 202.101C66.7005 202.527 66.7393 202.953 66.7974 203.399C66.8555 203.903 66.9137 204.407 66.9718 204.911C66.9912 205.066 67.0106 205.24 67.0299 205.395C67.2043 207.042 67.3981 208.728 67.5725 210.452C67.7275 211.886 69.8784 212.913 70.0334 214.347C70.1109 215.2 70.3047 223.047 70.5372 225.547C70.7116 227.369 70.5759 244.498 70.5178 245.35Z" fill="#D4D8E8"/>
<path d="M54.8811 188.399C54.8811 188.438 54.5129 201.382 64.2596 202.952C74.0062 204.521 67.5343 204.947 67.5343 204.947C67.5343 204.947 49.2036 204.172 48.8936 203.688C48.6029 203.203 54.8811 188.399 54.8811 188.399Z" fill="#C8CBD6"/>
<path d="M63.1158 208.509C63.1158 208.509 62.9414 208.645 62.5733 208.858C62.5733 208.858 62.5539 208.858 62.5539 208.878C61.0619 209.827 56.6633 212.404 50.2301 214.148C49.5519 214.323 48.8543 214.497 48.1374 214.671C48.1955 213.179 48.2536 211.668 48.3118 210.176C47.4592 210.118 46.6454 210.001 45.8896 209.846C45.909 209.653 45.9478 209.459 45.9672 209.246C46.781 208.916 47.5948 208.587 48.3699 208.277C49.0094 208.025 49.6294 207.792 50.2107 207.579C52.846 206.572 54.8031 205.894 54.8031 205.894L62.612 208.374L63.1158 208.509Z" fill="#C8CBD6"/>
<path d="M65.1895 208.301C65.1895 208.301 64.1819 208.553 62.593 208.882H62.5736C59.6283 209.483 54.6678 210.297 50.2498 210.258C49.591 210.258 48.9516 210.219 48.3315 210.18C47.4789 210.122 46.6651 210.006 45.9094 209.851C44.3011 209.502 42.9447 208.94 42.0534 208.029C35.4652 201.325 45.6381 177.278 47.789 174.933C50.2886 172.201 54.8422 171.232 57.3612 170.922C57.4581 170.903 57.5744 170.903 57.6712 170.884C58.5626 170.787 59.1245 170.748 59.1633 170.748C59.1633 170.748 58.9695 171.387 58.6401 172.453C58.5044 172.86 58.3688 173.345 58.1944 173.887C56.6442 178.945 53.6602 188.904 52.3619 194.504C51.8775 196.558 51.6256 198.031 51.7419 198.477C52.2457 200.395 57.5743 201.383 60.9459 201.809C62.3605 201.984 63.4262 202.081 63.6587 202.1C63.6781 202.1 63.6975 202.1 63.7169 202.1L63.9106 202.895L64.3757 204.813L64.8407 206.692L65.1895 208.301Z" fill="#D4D8E8"/>
<path d="M83.5394 219.83L60.9458 218.88L65.5188 190.706L88.1318 191.656L83.5394 219.83Z" fill="#233862"/>
<path d="M63.6786 202.08C63.6786 202.08 68.0772 201.77 68.2903 202.797C68.8135 205.18 64.5118 207.157 63.1166 207.021C61.7215 206.886 62.671 201.925 63.6786 202.08Z" fill="#FFB27D"/>
<path d="M86.892 197.388C86.892 197.388 82.6872 196.07 82.2221 197.02C81.1758 199.229 84.8961 202.135 86.2719 202.329C87.6671 202.503 87.919 197.465 86.892 197.388Z" fill="#FFB27D"/>
<path d="M59.6088 169.312C59.6088 169.312 57.7486 170.204 56.8379 171.521C56.8379 171.521 63.7555 183.535 63.7167 183.419C63.678 183.303 61.3721 170.843 59.6088 169.312Z" fill="#C8CBD6"/>
<path d="M68.2119 169.483C68.8126 169.716 69.9946 170.917 70.2465 171.576L71.0603 182.059C71.0603 182.059 69.297 174.366 68.4057 170.879C68.2119 169.987 68.2507 169.735 68.2119 169.483Z" fill="#C8CBD6"/>
<path d="M73.0181 191.035C73.0181 191.035 73.1925 190.26 74.2194 190.337C75.2464 190.434 81.0208 190.706 81.0208 190.706C81.0208 190.706 82.1446 190.686 82.0284 191.403L73.0181 191.035Z" fill="#C65447"/>
<g opacity="0.4">
<g opacity="0.4">
<path opacity="0.4" d="M353.868 295.027H353.81C353.268 295.008 352.841 294.543 352.88 294.02L356.562 255.866L359.778 256.157L354.488 294.523C354.45 294.814 354.178 295.027 353.868 295.027Z" fill="#8C9DF4"/>
</g>
<g opacity="0.4">
<path opacity="0.4" d="M389.328 295.027H389.387C389.929 295.008 390.355 294.543 390.317 294.02L386.635 255.866L383.418 256.157L388.708 294.523C388.747 294.814 389.018 295.027 389.328 295.027Z" fill="#8C9DF4"/>
</g>
<path opacity="0.4" d="M388.224 250.501L394.754 218.219C395.587 213.84 391.964 209.848 387.274 209.964L374.66 210.255C370.319 210.352 366.522 213.258 365.32 217.444L355.767 250.501H388.224Z" fill="#8C9DF4"/>
<path opacity="0.4" d="M384.271 250.501L390.801 218.219C391.634 213.84 388.01 209.848 383.321 209.964L370.707 210.255C366.366 210.352 362.568 213.258 361.367 217.444L351.814 250.501H384.271Z" fill="#8C9DF4"/>
<path opacity="0.4" d="M386.402 256.395H336.526C335.518 256.395 334.704 255.582 334.704 254.574V252.326C334.704 251.319 335.518 250.505 336.526 250.505H388.223V254.574C388.223 255.582 387.41 256.395 386.402 256.395Z" fill="#8C9DF4"/>
<path opacity="0.4" d="M363.014 256.395H331.217C330.403 256.395 329.744 255.737 329.744 254.923V251.978C329.744 251.164 330.403 250.505 331.217 250.505H363.014C363.828 250.505 364.487 251.164 364.487 251.978V254.923C364.468 255.737 363.809 256.395 363.014 256.395Z" fill="#8C9DF4"/>
</g>
<path d="M361.484 182.716C361.484 182.716 362.956 178.143 369.486 178.337C369.486 178.337 370.785 175.896 373.924 176.303C377.043 176.729 378.768 188.026 375.803 190.797C372.839 193.568 370.978 193.645 370.978 193.645L361.484 183.143V182.716Z" fill="#A9453D"/>
<path d="M363.227 217.345L357.937 230.754C357.937 230.754 352.841 236.76 348.733 234.823L361.716 209.613L363.227 217.345Z" fill="#ABDDDA"/>
<path d="M327.244 290.981C327.399 292.454 325.345 292.841 322.943 292.996C320.559 293.132 321.276 293.616 318.021 294.256C314.746 294.876 313.428 294.004 313.196 293.558C312.983 293.17 314.494 292.531 316.122 291.833C316.335 291.737 316.529 291.659 316.742 291.562C318.563 290.748 319.571 289.082 320.966 287.551C322.303 286.098 323.524 281.486 323.524 281.486L327.961 280.479C327.961 280.479 326.76 284.645 326.334 286.408C326.082 287.454 326.469 288.617 326.818 289.489C327.012 289.973 327.186 290.458 327.244 290.981Z" fill="#FFB27D"/>
<path d="M322.943 292.993C320.559 293.128 321.276 293.613 318.021 294.252C314.746 294.872 313.428 294 313.196 293.555C312.983 293.167 314.494 292.528 316.122 291.83L316.141 291.849C316.141 291.849 318.447 292.605 321.102 291.849C323.272 291.229 325.345 289.912 326.837 289.485C327.031 289.97 327.206 290.454 327.264 290.977C327.399 292.469 325.326 292.857 322.943 292.993Z" fill="#0F2549"/>
<path d="M333.968 239.53C336.352 237.844 351.873 230.481 359.934 229.628L369.157 226.257C369.157 226.257 376.753 237.496 376.811 246.099C376.83 250.11 374.99 250.517 374.99 250.517C374.99 250.517 346.408 250.73 345.149 250.866C343.095 251.079 340.402 256.194 339.723 260.845C339.045 265.495 327.128 284.427 327.128 284.427C327.128 284.427 324.648 285.221 323.485 285.163C322.245 285.085 321.683 284.679 321.683 284.679C321.683 284.679 328.582 243.309 333.968 239.53Z" fill="#BF3C33"/>
<path d="M334.646 290.981C334.801 292.454 332.747 292.841 330.344 292.996C327.961 293.132 328.678 293.616 325.422 294.256C322.148 294.876 321.896 292.531 323.504 291.833C323.717 291.737 323.911 291.659 324.124 291.562C325.946 290.748 326.953 289.082 328.348 287.551C329.685 286.098 330.906 281.486 330.906 281.486L335.343 280.479C335.343 280.479 334.142 284.645 333.716 286.408C333.464 287.454 333.851 288.617 334.2 289.489C334.394 289.973 334.588 290.458 334.646 290.981Z" fill="#FFB27D"/>
<path d="M330.344 292.993C327.961 293.128 328.678 293.613 325.423 294.252C322.148 294.872 320.83 294 320.598 293.555C320.385 293.167 321.896 292.528 323.524 291.83L323.543 291.849C323.543 291.849 325.849 292.605 328.504 291.849C330.674 291.229 332.747 289.912 334.239 289.485C334.433 289.97 334.607 290.454 334.665 290.977C334.782 292.469 332.728 292.857 330.344 292.993Z" fill="#233862"/>
<path d="M341.428 239.53C343.502 238.077 348.734 237.418 356.329 234.938C358.151 234.337 365.204 230.946 365.669 229.086L362.201 227.478L376.637 226.257C376.637 226.257 380.279 233.329 380.357 241.933C380.376 245.944 376.83 250.517 376.83 250.517C376.83 250.517 353.888 250.73 352.628 250.866C350.574 251.079 347.881 256.194 347.203 260.845C346.525 265.495 334.608 284.427 334.608 284.427C334.608 284.427 332.128 285.221 330.965 285.163C329.725 285.085 329.163 284.679 329.163 284.679C329.163 284.679 336.042 243.309 341.428 239.53Z" fill="#E1473D"/>
<path d="M364.254 202.675C364.235 202.695 367.142 204.012 369.254 203.315C371.25 202.656 372.994 199.672 372.955 199.672C372.102 199.556 371.211 198.703 370.978 193.665L370.591 193.762L364.177 195.39C364.177 195.39 364.429 197.424 364.545 199.342C364.623 200.951 364.603 202.482 364.254 202.675Z" fill="#EEA987"/>
<path d="M364.177 195.369C364.177 195.369 364.177 195.795 364.41 197.674C368.033 196.764 369.641 195.562 370.765 194.187L364.177 195.369Z" fill="#ED975D"/>
<path d="M362.801 195.621C362.801 195.621 371.288 196.997 372.063 191.707C372.839 186.417 374.466 183.026 369.079 181.902C363.693 180.797 362.336 182.658 361.658 184.363C360.98 186.087 360.631 195.136 362.801 195.621Z" fill="#EEA987"/>
<path d="M362.802 181.687C362.802 181.687 366.658 187.771 370.107 189.205C373.556 190.639 375.242 189.922 375.242 189.922C375.242 189.922 373.672 187.558 373.265 184.361C373.149 183.431 372.529 182.617 371.657 182.268C369.177 181.28 364.39 179.73 362.802 181.687Z" fill="#A9453D"/>
<path d="M366.192 182.29C366.192 182.29 363.925 183.453 362.995 184.538C362.104 185.584 361.057 188.433 361.135 189.712C361.135 189.712 360.011 183.588 362.336 181.496C364.797 179.248 366.192 182.29 366.192 182.29Z" fill="#A9453D"/>
<path d="M357.453 215.62C357.705 232.866 351.349 228.041 353.248 229.688C353.694 230.075 355.554 233.021 362.588 233.37C367.878 233.641 377.431 231.141 377.779 230.153C379 226.762 378.148 225.716 379.155 220.542C379.252 219.999 379.388 219.399 379.543 218.74C380.395 215.174 381.209 213.973 378.206 208.257C375.473 203.083 372.257 198.878 372.005 199.033C364.797 203.316 364.545 199.731 364.545 199.731C364.545 199.731 357.337 207.211 357.453 215.62Z" fill="#EDDAD3"/>
<path d="M364.564 199.712C364.564 199.712 357.182 200.971 356.329 204.149C355.457 207.346 345.943 232.498 345.943 232.498C345.943 232.498 354.527 234.242 356.271 232.498C358.015 230.754 361.91 208.897 361.91 208.897L364.564 199.712Z" fill="#FFA412"/>
<path d="M364.487 198.585L364.545 199.709C363.712 202.596 361.658 212.285 359.894 219.183L359.294 208.525L360.301 207.692L359.914 206.297L363.247 199.98L364.487 198.585Z" fill="#DA8600"/>
<path d="M364.564 245.965C375.939 249.763 384.949 247.205 384.949 247.205L383.089 236.199L382.081 230.211L379.911 217.345L376.191 205.099L372.935 203.122L370.087 217.345L364.564 245.965Z" fill="#FFA412"/>
<path d="M378.283 218.679C378.477 218.969 378.477 224.821 372.974 226.255C367.471 227.689 381.035 229.084 381.035 229.084C381.035 229.084 385.414 225.732 385.356 224.899C385.278 224.066 378.283 218.679 378.283 218.679Z" fill="#DA8600"/>
<path d="M368.227 231.412C368.227 231.412 375.784 235.734 383.089 236.218L382.081 230.23L368.227 231.412Z" fill="#1A598C"/>
<path d="M363.286 230.521C363.286 230.521 362.666 232.188 362.375 232.459C362.085 232.73 361.852 232.75 361.852 232.75L362.162 231.258L363.286 230.521Z" fill="#FFB27D"/>
<path d="M363.092 229.068L360.515 231.49C360.515 231.49 360.709 231.665 361.077 231.529C361.445 231.394 362.278 230.754 362.278 230.754L363.092 229.068Z" fill="#FFB27D"/>
<path d="M369.099 227.925C369.099 227.925 363.771 228.37 363.112 229.049C362.453 229.746 360.98 231.955 360.903 232.595C360.825 233.234 362.569 231.606 363.17 231.238C363.558 230.986 364.817 231.025 365.437 231.044C368.034 231.103 369.351 230.25 369.351 230.25L369.099 227.925Z" fill="#FFB27D"/>
<path d="M372.005 199.029C372.005 199.029 379.387 199.456 381.81 202.847C385.22 207.613 392.002 227.901 388.107 230.614C383.728 233.656 368.207 231.408 368.207 231.408C368.207 231.408 367.684 228.986 368.401 227.824C369.118 226.661 380.802 224.762 381.345 224.219C381.887 223.677 374.601 213.698 374.601 212.089C374.601 210.481 372.005 199.029 372.005 199.029Z" fill="#FFA412"/>
<path d="M371.579 198.083L370.087 217.344L373.517 209.961L372.935 208.643C372.935 208.643 374.195 206.493 374.195 206.241C374.195 205.989 373.846 199.226 373.846 199.226L371.579 198.083Z" fill="#DA8600"/>
<path d="M326.973 228.001H356.911L351.485 207.888H321.528L326.973 228.001Z" fill="#142D5E"/>
<path d="M326.024 228.003H355.981L350.536 207.89H320.579L326.024 228.003Z" fill="#2B478B"/>
<path d="M338.774 232.88L345.052 232.938L340.712 219.684L334.434 219.626L338.774 232.88Z" fill="#142D5E"/>
<path d="M335.217 232.937H348.936V232.297H335.217V232.937Z" fill="#142D5E"/>
<path d="M353.155 233.094H362.979V231.776H353.155V233.094Z" fill="#233862"/>
<path d="M400.256 294.469C399.869 294.469 399.559 294.217 399.481 293.868L395.722 273.6L390.316 244.457L388.804 236.299L392.66 236.202L393.319 240.93L398.009 274.181L400.779 293.888C400.857 294.198 400.605 294.469 400.256 294.469Z" fill="#4C64A5"/>
<path d="M393.339 240.932C390.84 241.978 390.336 244.459 390.336 244.459L388.689 235.816L392.661 236.204L393.339 240.932Z" fill="#4C64A5"/>
<path d="M293.915 294.273C294.303 294.273 294.613 294.021 294.69 293.673L298.45 273.482L303.856 244.436L305.367 236.317L301.511 236.22L300.852 240.928L296.163 274.063L293.392 293.711C293.334 294.002 293.586 294.273 293.915 294.273Z" fill="#4C64A5"/>
<path d="M300.833 240.909C303.333 241.955 303.836 244.416 303.836 244.416L306.065 236.084L301.492 236.181L300.833 240.909Z" fill="#4C64A5"/>
<path d="M403.919 236.199H292.947C292.288 236.199 291.765 235.656 291.765 235.017V234.145C291.765 233.486 292.308 232.963 292.947 232.963H403.919C404.578 232.963 405.101 233.505 405.101 234.145V235.017C405.101 235.656 404.578 236.199 403.919 236.199Z" fill="#4C64A5"/>
<path d="M174.902 259.706L124.212 71.6522C124.212 71.6522 211.525 14.1413 305.736 71.6522L262.816 259.706H174.902Z" fill="#F5F9FD"/>
<path d="M256.383 215.118C256.383 215.118 254.678 186.42 258.204 177.604C261.731 168.806 296.939 118.911 272.873 87.8105C248.806 56.7104 201.275 64.9263 180.735 77.2501C160.195 89.5738 174.282 114.221 166.067 125.964C157.851 137.706 149.693 144.508 154.402 147.143C159.091 149.778 165.543 148.906 165.543 154.487C165.543 160.067 163.315 161.618 165.66 165.26C168.004 168.903 164.885 168.787 166.435 171.907C168.004 175.046 168.605 174.658 168.062 175.588C167.52 176.518 164.536 181.944 165.718 186.052C166.9 190.16 174.127 191.729 183.913 190.935C193.698 190.16 199.763 189.172 200.345 194.268C200.926 199.364 201.313 215.118 201.313 215.118C201.313 215.118 255.763 214.885 256.383 215.118Z" fill="#38B4F2"/>
<path d="M252.875 168.811C252.875 168.811 281.941 129.166 269.733 102.464C257.506 75.7818 225.902 70.2788 204.413 73.4179C182.924 76.5569 177.441 86.7686 182.091 95.3914C186.722 104.034 187.148 116.977 199.782 123.662C212.416 130.328 226.658 130.541 228.557 139.377C230.456 148.213 238.323 175.864 252.875 168.811Z" fill="#73C0FF"/>
<path d="M256.383 215.119C256.383 216.282 244.059 217.212 228.829 217.212C213.618 217.212 201.274 216.282 201.274 215.119C201.274 213.956 213.598 213.026 228.829 213.026C244.039 213.026 256.383 213.956 256.383 215.119Z" fill="#8C9DF4"/>
<path d="M218.85 263.04C243.11 263.04 262.777 261.548 262.777 259.707C262.777 257.866 243.11 256.374 218.85 256.374C194.589 256.374 174.922 257.866 174.922 259.707C174.922 261.548 194.589 263.04 218.85 263.04Z" fill="#F5F9FD"/>
<path d="M257.855 94.9707H235.514L228.325 87.7818H204.22V86.8711H228.693L235.901 94.0793H257.855V94.9707Z" fill="#EBF3FA"/>
<path d="M203.561 87.3327C203.561 86.9645 203.852 86.6738 204.22 86.6738C204.588 86.6738 204.879 86.9645 204.879 87.3327C204.879 87.7008 204.588 87.9915 204.22 87.9915C203.852 87.9721 203.561 87.6814 203.561 87.3327Z" fill="#EBF3FA"/>
<path d="M257.255 94.5274C257.255 94.198 257.526 93.9268 257.855 93.9268C258.185 93.9268 258.456 94.198 258.456 94.5274C258.456 94.8568 258.185 95.1281 257.855 95.1281C257.507 95.1281 257.255 94.8568 257.255 94.5274Z" fill="#EBF3FA"/>
<path d="M257.875 97.8994H235.553L228.345 90.6911H204.259V89.7998H228.732L235.921 96.9887H257.875V97.8994Z" fill="#EBF3FA"/>
<path d="M203.6 90.2448C203.6 89.8766 203.891 89.5859 204.259 89.5859C204.627 89.5859 204.918 89.8766 204.918 90.2448C204.918 90.6129 204.627 90.9036 204.259 90.9036C203.891 90.9036 203.6 90.6129 203.6 90.2448Z" fill="#EBF3FA"/>
<path d="M257.274 97.4327C257.274 97.1033 257.546 96.832 257.875 96.832C258.205 96.832 258.476 97.1033 258.476 97.4327C258.476 97.7621 258.205 98.0334 257.875 98.0334C257.546 98.0528 257.274 97.7815 257.274 97.4327Z" fill="#EBF3FA"/>
<path d="M257.875 100.92H235.552L228.344 93.7117H204.259V92.8203H228.732L235.921 100.009H257.875V100.92Z" fill="#EBF3FA"/>
<path d="M203.6 93.2633C203.6 92.8951 203.89 92.6045 204.258 92.6045C204.627 92.6045 204.917 92.8951 204.917 93.2633C204.917 93.6315 204.627 93.9221 204.258 93.9221C203.89 93.9221 203.6 93.6315 203.6 93.2633Z" fill="#EBF3FA"/>
<path d="M257.275 100.456C257.275 100.127 257.546 99.8555 257.875 99.8555C258.205 99.8555 258.476 100.127 258.476 100.456C258.476 100.786 258.205 101.057 257.875 101.057C257.546 101.076 257.275 100.805 257.275 100.456Z" fill="#EBF3FA"/>
<path d="M223.906 122.795H222.995V107.391L219.876 104.271H204.587V103.36H220.244L223.906 107.023V122.795Z" fill="#EBF3FA"/>
<path d="M204.413 103.164C204.781 103.164 205.072 103.455 205.072 103.823C205.072 104.191 204.781 104.482 204.413 104.482C204.045 104.482 203.754 104.191 203.754 103.823C203.754 103.455 204.064 103.164 204.413 103.164Z" fill="#EBF3FA"/>
<path d="M222.801 122.64C222.801 122.272 223.092 121.981 223.46 121.981C223.828 121.981 224.119 122.272 224.119 122.64C224.119 123.008 223.828 123.299 223.46 123.299C223.092 123.299 222.801 123.008 222.801 122.64Z" fill="#EBF3FA"/>
<path d="M226.716 125.974H225.806V106.229L221.233 101.636H204.898V100.745H221.601L226.716 105.861V125.974Z" fill="#EBF3FA"/>
<path d="M204.413 100.529C204.781 100.529 205.072 100.82 205.072 101.188C205.072 101.556 204.781 101.847 204.413 101.847C204.045 101.847 203.754 101.556 203.754 101.188C203.754 100.82 204.064 100.529 204.413 100.529Z" fill="#EBF3FA"/>
<path d="M225.612 125.973C225.612 125.605 225.902 125.314 226.27 125.314C226.639 125.314 226.929 125.605 226.929 125.973C226.929 126.341 226.639 126.632 226.27 126.632C225.902 126.632 225.612 126.341 225.612 125.973Z" fill="#EBF3FA"/>
<path d="M230.165 129.816H229.255V104.141L223.248 98.115H204.219V97.2236H223.616L230.165 103.754V129.816Z" fill="#EBF3FA"/>
<path d="M203.754 97.6617C203.754 97.2936 204.045 97.0029 204.413 97.0029C204.781 97.0029 205.072 97.2936 205.072 97.6617C205.072 98.0299 204.781 98.3206 204.413 98.3206C204.064 98.3206 203.754 98.0299 203.754 97.6617Z" fill="#EBF3FA"/>
<path d="M229.409 129.211C229.739 129.056 230.126 129.211 230.281 129.54C230.436 129.87 230.281 130.257 229.952 130.412C229.622 130.567 229.235 130.412 229.08 130.083C228.925 129.734 229.061 129.346 229.409 129.211Z" fill="#EBF3FA"/>
<path d="M233.983 135.835H233.092V105.374L235.746 102.7H257.855V103.611H236.114L233.983 105.742V135.835Z" fill="#EBF3FA"/>
<path d="M236.715 139.092H235.823V107.643L238.11 105.356H257.855V106.267H238.478L236.715 108.03V139.092Z" fill="#EBF3FA"/>
<path d="M239.874 139.089H239.195V108.842H257.855V109.52H239.874V139.089Z" fill="#EBF3FA"/>
<path d="M257.196 103.165C257.196 102.797 257.487 102.506 257.855 102.506C258.223 102.506 258.514 102.797 258.514 103.165C258.514 103.533 258.223 103.823 257.855 103.823C257.487 103.804 257.196 103.513 257.196 103.165Z" fill="#EBF3FA"/>
<path d="M257.855 105.163C258.223 105.163 258.514 105.454 258.514 105.822C258.514 106.19 258.223 106.481 257.855 106.481C257.487 106.481 257.196 106.19 257.196 105.822C257.196 105.454 257.487 105.163 257.855 105.163Z" fill="#EBF3FA"/>
<path d="M257.856 108.534C258.224 108.534 258.514 108.825 258.514 109.193C258.514 109.561 258.224 109.852 257.856 109.852C257.487 109.852 257.197 109.561 257.197 109.193C257.197 108.825 257.487 108.534 257.856 108.534Z" fill="#EBF3FA"/>
<path d="M238.866 139.088C238.866 138.719 239.156 138.429 239.525 138.429C239.893 138.429 240.183 138.719 240.183 139.088C240.183 139.456 239.893 139.746 239.525 139.746C239.176 139.746 238.866 139.456 238.866 139.088Z" fill="#EBF3FA"/>
<path d="M235.61 139.088C235.61 138.719 235.901 138.429 236.269 138.429C236.637 138.429 236.928 138.719 236.928 139.088C236.928 139.456 236.637 139.746 236.269 139.746C235.901 139.746 235.61 139.456 235.61 139.088Z" fill="#EBF3FA"/>
<path d="M232.879 135.838C232.879 135.47 233.169 135.18 233.537 135.18C233.906 135.18 234.196 135.47 234.196 135.838C234.196 136.207 233.906 136.497 233.537 136.497C233.169 136.497 232.879 136.207 232.879 135.838Z" fill="#EBF3FA"/>
<path d="M264.792 136.496H263.901V120.646L257.003 113.748H242.819V112.856H257.371L264.792 120.278V136.496Z" fill="#EBF3FA"/>
<path d="M261.091 144.365H260.2V122.392L254.949 117.14H242.819V116.249H255.317L261.091 122.023V144.365Z" fill="#EBF3FA"/>
<path d="M258.069 144.359H257.158V123.723L253.399 119.944H242.819V119.053H253.767L258.069 123.335V144.359Z" fill="#EBF3FA"/>
<path d="M254.445 149.187H253.554V125.76L251.539 123.745H243.982V144.362H243.071V122.854H251.907L254.445 125.373V149.187Z" fill="#EBF3FA"/>
<path d="M250.666 149.805H249.755V126.436H247.508V149.185H246.616V125.525H250.666V149.805Z" fill="#EBF3FA"/>
<path d="M219.294 121.98H218.403V111.264H199.394V110.373H219.294V121.98Z" fill="#EBF3FA"/>
<path d="M215.458 120.739H214.567V114.635H200.925V113.744H215.458V120.739Z" fill="#EBF3FA"/>
<path d="M212.125 120.74H211.234V117.911H206.622V117.02H212.125V120.74Z" fill="#EBF3FA"/>
<path d="M198.386 107.639H192.321V106.728H198.018L200.479 104.286V83.2236H201.37V104.655L198.386 107.639Z" fill="#EBF3FA"/>
<path d="M197.515 104.268H191.683V103.357H196.605V83.6504H197.515V104.268Z" fill="#EBF3FA"/>
<path d="M193.31 85.2822H192.419V100.551H193.31V85.2822Z" fill="#EBF3FA"/>
<path d="M247.799 89.6H236.095L230.185 83.6706H204.22V82.7793H230.572L236.482 88.6893H247.799V89.6Z" fill="#EBF3FA"/>
<path d="M244.775 84.8498H238.362L235.319 81.8269L235.959 81.1875L238.73 83.9584H244.775V84.8498Z" fill="#EBF3FA"/>
<path d="M227.21 95.8161L226.574 96.4404L231.541 101.502L232.177 100.878L227.21 95.8161Z" fill="#EBF3FA"/>
<path d="M235.01 81.5185C235.01 81.1697 235.281 80.8984 235.63 80.8984C235.978 80.8984 236.25 81.1697 236.25 81.5185C236.25 81.8673 235.978 82.1386 235.63 82.1386C235.281 82.1386 235.01 81.8479 235.01 81.5185Z" fill="#EBF3FA"/>
<path d="M244.155 84.4062C244.155 84.0574 244.426 83.7861 244.775 83.7861C245.124 83.7861 245.395 84.0574 245.395 84.4062C245.395 84.755 245.124 85.0263 244.775 85.0263C244.426 85.0263 244.155 84.755 244.155 84.4062Z" fill="#EBF3FA"/>
<path d="M226.445 96.1503C226.445 95.8016 226.716 95.5303 227.065 95.5303C227.414 95.5303 227.685 95.8016 227.685 96.1503C227.685 96.4991 227.414 96.7704 227.065 96.7704C226.716 96.7704 226.445 96.4991 226.445 96.1503Z" fill="#EBF3FA"/>
<path d="M231.25 101.185C231.25 100.837 231.522 100.565 231.871 100.565C232.219 100.565 232.491 100.837 232.491 101.185C232.491 101.534 232.219 101.806 231.871 101.806C231.541 101.806 231.25 101.534 231.25 101.185Z" fill="#EBF3FA"/>
<path d="M200.306 83.2285C200.306 82.8797 200.577 82.6084 200.926 82.6084C201.275 82.6084 201.546 82.8797 201.546 83.2285C201.546 83.5773 201.275 83.8485 200.926 83.8485C200.577 83.8679 200.306 83.5773 200.306 83.2285Z" fill="#EBF3FA"/>
<path d="M191.702 107.139C191.74 106.79 192.031 106.538 192.38 106.577C192.729 106.616 192.981 106.907 192.942 107.255C192.903 107.604 192.612 107.856 192.264 107.817C191.934 107.779 191.682 107.469 191.702 107.139Z" fill="#EBF3FA"/>
<path d="M191.062 103.806C191.062 103.457 191.334 103.186 191.683 103.186C192.031 103.186 192.303 103.457 192.303 103.806C192.303 104.154 192.031 104.426 191.683 104.426C191.334 104.445 191.062 104.154 191.062 103.806Z" fill="#EBF3FA"/>
<path d="M196.43 83.791C196.43 83.4422 196.702 83.1709 197.05 83.1709C197.399 83.1709 197.671 83.4422 197.671 83.791C197.671 84.1398 197.399 84.411 197.05 84.411C196.702 84.411 196.43 84.1398 196.43 83.791Z" fill="#EBF3FA"/>
<path d="M192.245 85.2783C192.245 84.9295 192.516 84.6582 192.865 84.6582C193.213 84.6582 193.485 84.9295 193.485 85.2783C193.485 85.6271 193.213 85.8983 192.865 85.8983C192.516 85.8983 192.245 85.6271 192.245 85.2783Z" fill="#EBF3FA"/>
<path d="M192.245 100.451C192.245 100.102 192.516 99.8311 192.865 99.8311C193.213 99.8311 193.485 100.102 193.485 100.451C193.485 100.8 193.213 101.071 192.865 101.071C192.516 101.071 192.245 100.8 192.245 100.451Z" fill="#EBF3FA"/>
<path d="M206.158 117.466C206.158 117.117 206.429 116.846 206.778 116.846C207.127 116.846 207.398 117.117 207.398 117.466C207.398 117.815 207.127 118.086 206.778 118.086C206.449 118.086 206.158 117.815 206.158 117.466Z" fill="#EBF3FA"/>
<path d="M211.06 120.526C211.06 120.178 211.331 119.906 211.68 119.906C212.028 119.906 212.3 120.178 212.3 120.526C212.3 120.875 212.028 121.146 211.68 121.146C211.331 121.146 211.06 120.875 211.06 120.526Z" fill="#EBF3FA"/>
<path d="M200.442 114.193C200.442 113.845 200.713 113.573 201.062 113.573C201.41 113.573 201.682 113.845 201.682 114.193C201.682 114.542 201.41 114.813 201.062 114.813C200.713 114.813 200.442 114.542 200.442 114.193Z" fill="#EBF3FA"/>
<path d="M214.373 120.74C214.373 120.391 214.644 120.12 214.993 120.12C215.341 120.12 215.613 120.391 215.613 120.74C215.613 121.089 215.341 121.36 214.993 121.36C214.644 121.36 214.373 121.089 214.373 120.74Z" fill="#EBF3FA"/>
<path d="M218.229 121.788C218.229 121.439 218.501 121.168 218.85 121.168C219.198 121.168 219.47 121.439 219.47 121.788C219.47 122.137 219.198 122.408 218.85 122.408C218.501 122.408 218.229 122.137 218.229 121.788Z" fill="#EBF3FA"/>
<path d="M198.755 110.82C198.755 110.471 199.026 110.2 199.375 110.2C199.723 110.2 199.995 110.471 199.995 110.82C199.995 111.169 199.723 111.44 199.375 111.44C199.045 111.44 198.755 111.169 198.755 110.82Z" fill="#EBF3FA"/>
<path d="M217.377 106.731H202.186V107.623H217.377V106.731Z" fill="#EBF3FA"/>
<path d="M216.757 107.197C216.757 106.848 217.028 106.577 217.377 106.577C217.726 106.577 217.997 106.848 217.997 107.197C217.997 107.546 217.726 107.817 217.377 107.817C217.028 107.817 216.757 107.546 216.757 107.197Z" fill="#EBF3FA"/>
<path d="M201.565 107.197C201.565 106.848 201.836 106.577 202.185 106.577C202.534 106.577 202.805 106.848 202.805 107.197C202.805 107.546 202.534 107.817 202.185 107.817C201.836 107.817 201.565 107.546 201.565 107.197Z" fill="#EBF3FA"/>
<path d="M345.323 147.263L348.094 147.089C348.326 147.069 348.539 147.185 348.655 147.399C348.81 147.651 348.965 147.902 349.14 148.154C349.45 148.619 349.799 149.046 350.167 149.433C350.341 149.608 350.38 149.879 350.283 150.111L349.082 152.766C348.946 153.057 349.062 153.386 349.334 153.541L351.659 154.839C351.93 154.994 352.26 154.917 352.434 154.665L353.984 152.475C354.139 152.262 354.41 152.165 354.662 152.243C355.747 152.592 356.871 152.747 358.015 152.747C358.286 152.747 358.538 152.94 358.615 153.192L359.022 154.762C359.1 155.053 359.39 155.266 359.7 155.208L362.316 154.82C362.374 154.82 362.413 154.801 362.471 154.781C362.704 154.684 362.859 154.452 362.839 154.2L362.704 152.127L362.665 151.623C363.111 151.41 363.537 151.138 363.963 150.848C364.525 150.46 365.048 150.034 365.494 149.569C365.668 149.394 365.94 149.336 366.172 149.433L368.304 150.402C368.594 150.538 368.943 150.421 369.098 150.131L370.086 148.348L370.377 147.844C370.532 147.573 370.455 147.205 370.203 147.03L368.381 145.732C368.168 145.577 368.071 145.325 368.149 145.073C368.362 144.337 368.498 143.581 368.556 142.826C368.556 142.768 368.575 142.69 368.575 142.632C368.575 142.613 368.575 142.593 368.575 142.574C368.614 142.322 368.788 142.128 369.021 142.07L371.578 141.392C371.617 141.392 371.637 141.372 371.656 141.372C371.908 141.256 372.063 141.004 372.024 140.714L371.637 138.117C371.598 137.807 371.307 137.574 370.997 137.594L368.091 137.768C367.839 137.788 367.626 137.652 367.509 137.419C367.277 136.935 366.986 136.451 366.676 135.986C366.502 135.734 366.327 135.501 366.153 135.288C365.998 135.094 365.959 134.842 366.075 134.629L367.219 132.071C367.354 131.8 367.238 131.451 366.967 131.296L364.661 130.017C364.39 129.862 364.041 129.94 363.847 130.192L362.626 131.916C362.471 132.149 362.161 132.226 361.909 132.13C360.882 131.723 359.797 131.471 358.693 131.393C358.441 131.374 358.208 131.199 358.15 130.928L357.549 128.622C357.472 128.312 357.162 128.119 356.852 128.157L354.255 128.545C353.945 128.584 353.713 128.874 353.752 129.184V129.3L353.907 131.703C353.926 131.955 353.771 132.207 353.538 132.304C352.977 132.556 352.415 132.866 351.891 133.234C351.601 133.428 351.349 133.641 351.078 133.854C350.903 134.009 350.651 134.048 350.438 133.951L348.268 132.982C347.977 132.846 347.628 132.963 347.473 133.253L346.195 135.54C346.156 135.598 346.136 135.676 346.117 135.734C346.078 135.966 346.175 136.199 346.369 136.334L347.822 137.361C347.997 137.497 348.094 137.71 348.074 137.923C348.074 137.981 348.055 138.04 348.035 138.098C347.512 139.415 347.26 140.83 347.28 142.264C347.28 142.496 347.144 142.729 346.931 142.826C346.892 142.845 346.873 142.845 346.834 142.864L344.761 143.407C344.47 143.484 344.276 143.775 344.315 144.085V144.143L344.683 146.682C344.722 147.05 344.993 147.282 345.323 147.263ZM363.382 140.287C363.518 140.694 363.634 141.12 363.692 141.586C363.808 142.457 363.576 143.814 363.149 144.589C363.111 144.666 363.053 144.744 363.014 144.841C360.068 149.724 353.035 148.367 352.143 142.651C352.027 141.896 352.182 140.83 352.473 140.016C352.55 139.822 352.628 139.648 352.705 139.512C353.093 138.815 353.577 138.233 354.12 137.768C357.162 135.114 361.987 136.257 363.382 140.287Z" fill="#BB5B2C"/>
<path d="M309.65 215.158H273.841C271.012 215.158 268.706 212.852 268.706 210.023V173.071C268.706 170.242 271.012 167.937 273.841 167.937H309.65C312.479 167.937 314.785 170.242 314.785 173.071V210.023C314.804 212.833 312.479 215.158 309.65 215.158Z" fill="#D5DFFC"/>
<path d="M305.677 190.015C305.677 197.708 299.457 203.928 291.764 203.928C284.072 203.928 277.852 197.708 277.852 190.015C277.852 182.323 284.072 176.103 291.764 176.103C292.636 176.103 293.489 176.18 294.322 176.335C292.578 182.671 290.272 191.042 290.117 191.565C290.408 191.12 298.876 187.322 304.65 184.764C305.309 186.372 305.677 188.155 305.677 190.015Z" fill="#2A4E96"/>
<path d="M305.425 183.233C300.329 185.481 291.861 189.26 291.59 189.686C291.745 189.182 294.07 180.695 295.64 174.998C299.98 176.18 303.545 179.242 305.425 183.233Z" fill="#BB5B2C"/>
<path d="M150.449 129.918H101.367C98.6152 129.918 96.3674 127.67 96.3674 124.918V100.019C96.3674 97.2673 98.6152 95.0195 101.367 95.0195H150.468C153.22 95.0195 155.467 97.2673 155.467 100.019V124.918C155.467 127.67 153.22 129.918 150.449 129.918Z" fill="#1A598C"/>
<path d="M123.127 123.756H101.27V116.8H123.127V123.756ZM101.541 123.485H122.856V117.071H101.541V123.485Z" fill="#C0D4FF"/>
<path d="M111.308 118.654H102.859V119.197H111.308V118.654Z" fill="#C0D4FF"/>
<path d="M118.205 118.654H112.198V119.197H118.205V118.654Z" fill="#C0D4FF"/>
<path d="M107.528 120.227H102.858V120.769H107.528V120.227Z" fill="#C0D4FF"/>
<path d="M114.329 120.227H108.323V120.769H114.329V120.227Z" fill="#C0D4FF"/>
<path d="M120.937 120.227H114.93V120.769H120.937V120.227Z" fill="#C0D4FF"/>
<path d="M149.189 123.756H127.332V116.8H149.189V123.756ZM127.603 123.485H148.918V117.071H127.603V123.485Z" fill="#C0D4FF"/>
<path d="M137.37 118.654H128.921V119.197H137.37V118.654Z" fill="#C0D4FF"/>
<path d="M144.267 118.654H138.26V119.197H144.267V118.654Z" fill="#C0D4FF"/>
<path d="M133.59 120.227H128.92V120.769H133.59V120.227Z" fill="#C0D4FF"/>
<path d="M140.372 120.227H134.365V120.769H140.372V120.227Z" fill="#C0D4FF"/>
<path d="M147 120.227H140.993V120.769H147V120.227Z" fill="#C0D4FF"/>
<path d="M150.546 114.029H101.27V110.037H150.546V114.029ZM101.754 113.564H150.081V110.502H101.754V113.564Z" fill="#C0D4FF"/>
<path d="M139.752 110.267H101.502V113.793H139.752V110.267Z" fill="#C0D4FF"/>
<path d="M150.546 106.103H101.27V102.111H150.546V106.103ZM101.754 105.619H150.081V102.557H101.754V105.619Z" fill="#C0D4FF"/>
<path d="M126.888 102.093H101.272V106.084H126.888V102.093Z" fill="#F99746"/>
<path d="M152.56 289.97L150.022 290.861C150.022 290.861 138.996 276.309 137.64 263.481C137.388 261.195 137.485 258.986 138.008 256.932C138.008 256.932 137.892 256.35 137.717 255.304C137.64 254.82 137.524 254.238 137.407 253.58C137.039 251.622 136.555 248.948 135.993 245.906C134.695 238.892 133.009 229.94 131.71 223.351L132.389 223.138L139.791 220.871L141.321 216.24L146.825 214.864C146.825 214.864 148.065 217.151 149.15 227.983C149.344 229.397 149.537 230.967 149.673 232.672C150.099 237.865 150.138 244.298 149.15 251.642C148.898 253.521 148.568 255.459 148.181 257.474C147.89 258.947 147.852 260.943 147.968 263.229C148.51 273.693 152.56 289.97 152.56 289.97Z" fill="#1D3B54"/>
<path d="M149.654 232.678L137.698 255.329C137.621 254.845 137.504 254.264 137.388 253.605C137.02 251.648 136.535 248.974 135.973 245.932C134.675 238.917 132.989 229.965 131.691 223.377L132.369 223.164L139.771 220.897L141.302 216.265L146.805 214.89C146.805 214.89 148.045 217.176 149.13 228.008C149.344 229.403 149.518 230.973 149.654 232.678Z" fill="#102434"/>
<path d="M144.403 217.774L144.132 215.507C139.501 216.689 127.1 212.232 127.1 212.232C127.1 212.232 122.604 215.992 123.205 225.021C123.495 229.42 124.019 248.138 124.561 253.68C124.755 255.695 124.929 257.11 125.007 257.691C125.026 257.865 124.968 258.02 124.871 258.175C124.057 259.493 123.399 260.849 122.837 262.244C117.45 275.944 123.67 292.802 123.67 292.802L125.278 292.182C125.278 292.182 128.824 273.425 131.692 265.132C132.176 263.717 132.641 262.613 133.087 261.954C134.347 260.036 135.49 256.896 136.555 253.157C138.551 246.084 140.16 236.899 141.225 229.788C141.361 229.769 144.403 217.774 144.403 217.774Z" fill="#1D3B54"/>
<path d="M133.048 294.024H120.259C120.259 294.024 119.949 292.164 120.627 290.769C121.266 289.413 122.274 288.812 122.022 287.165C122.836 287.959 124.153 288.851 126.014 288.618C126.246 288.967 127.467 290.847 128.223 291.35C129.075 291.932 132.796 291.719 133.048 294.024Z" fill="#1D4677"/>
<path d="M160.485 294.022H147.697C147.697 294.022 147.212 292.084 148.065 290.767C148.801 289.604 148.53 288.926 147.968 287.957C148.549 288.19 149.305 288.383 150.119 288.345C150.758 288.306 151.436 288.034 152.018 287.705C152.56 288.306 154.924 290.844 155.661 291.348C156.513 291.929 160.234 291.716 160.485 294.022Z" fill="#1D4677"/>
<path d="M148.394 159.507C148.375 159.177 148.123 155.631 142.446 155.438C142.446 155.438 145.236 155.748 145.72 156.93C145.72 156.93 143.821 155.476 142.271 155.941C140.721 156.406 139.81 158.983 139.81 159.836C139.81 160.689 140.663 163.421 141.651 163.653C142.019 163.75 142.446 163.711 142.833 163.653C142.581 164.041 142.31 164.467 142.077 164.952C139.81 169.389 142.155 173.71 144.073 173.226C145.294 172.916 145.643 174.911 145.643 174.911L157.598 165.707C157.56 165.727 153.18 157.065 148.394 159.507Z" fill="#2C3A64"/>
<path d="M147.929 191.517C139.946 191.924 141.709 180.608 142.194 180.666C143.163 180.181 144.926 177.817 145.933 173.884L146.282 174.039L152.037 176.616C152.037 176.616 151.417 178.399 150.971 180.104C150.623 181.441 150.371 182.739 150.584 183.088C151.03 183.262 151.301 183.379 151.301 183.379C151.359 183.514 150.041 191.401 147.929 191.517Z" fill="#EEA987"/>
<path d="M126.847 197.835C127.525 195.704 128.242 193.669 128.959 191.79C130.587 187.507 131.633 185.279 132.525 183.554C134.21 180.26 141.709 180.474 141.709 180.474C143.163 185.434 147.135 188.534 147.135 188.534C149.247 187.352 150.836 183.186 150.836 183.186C150.836 183.186 156.029 185.163 158.16 189.774C160.427 194.716 163.043 202.098 165.136 204.327C165.621 204.85 167.054 205.625 168.779 206.458C168.818 206.516 168.837 206.536 168.856 206.536C168.74 206.787 168.236 207.931 167.423 209.093C166.764 210.043 165.892 210.992 164.865 211.496C164.07 211.128 162.656 210.605 162.055 210.237C159.866 208.958 156.765 205.373 154.227 201.517L153.374 212.368L152.095 228.78C150.119 229.362 148.239 229.827 146.476 230.176C146.36 228.8 145.895 227.153 145.895 227.153C145.914 228.025 144.848 229.672 144.228 230.563C127.855 233.063 120.181 226.261 120.181 226.261C120.801 220.235 123.553 208.047 126.847 197.835Z" fill="#285173"/>
<path d="M167.404 209.093C166.745 210.043 165.873 210.992 164.846 211.496C164.051 211.128 162.637 210.605 162.036 210.237C159.846 208.958 156.746 205.373 154.208 201.517C154.305 200.296 160.97 206.536 161.823 207.659C162.443 208.512 165.756 208.919 167.404 209.093Z" fill="#1B3D58"/>
<path d="M152.018 176.615C152.018 176.615 151.398 178.398 150.952 180.103C147.58 179.212 146.573 175.84 146.263 174.038L152.018 176.615Z" fill="#ED985F"/>
<path d="M152.735 178.499C152.735 178.499 144.694 176.716 145.914 171.969C147.155 167.202 146.941 163.772 152.135 164.703C157.328 165.633 157.851 167.687 157.831 169.372C157.851 171.058 154.867 178.848 152.735 178.499Z" fill="#EEA987"/>
<path d="M158.295 166.676C157.423 164.951 156.416 165.048 155.776 165.358C151.998 162.025 148.278 164.757 148.278 164.757C146.844 168.051 143.763 169.388 143.763 169.388C143.763 169.388 145.003 170.59 148.588 170.57C149.692 170.57 150.777 170.086 151.785 169.427C149.847 171.287 147.58 172.411 147.58 172.411C152.056 171.597 155.079 166.637 155.389 166.114C155.776 166.656 156.493 167.78 156.552 168.749C156.629 170.047 156.164 172.586 156.939 172.682C156.958 172.663 159.594 169.253 158.295 166.676Z" fill="#2C3A64"/>
<path d="M143.356 179.563C143.356 179.563 142 179.66 141.709 180.474C141.709 180.474 143.492 187.295 147.115 188.535L143.356 179.563Z" fill="#1B3D58"/>
<path d="M147.116 188.538C147.116 188.538 150.119 183.383 150.507 182.356C150.507 182.356 151.902 182.88 151.824 183.713C151.824 183.713 148.898 188.17 147.116 188.538Z" fill="#1B3D58"/>
<path d="M161.203 213.625C161.203 213.625 163.005 212.715 163.683 212.192C164.361 211.668 164.458 212.075 164.264 212.443C164.051 212.85 163.76 213.219 163.005 213.684C162.268 214.129 161.009 213.994 161.203 213.625Z" fill="#FFB27D"/>
<path d="M137.795 186.11C137.892 186.44 150.138 205.061 150.41 208.781C150.681 212.502 145.255 210.39 145.178 209.905C145.1 209.421 137.795 186.11 137.795 186.11Z" fill="#1B3D58"/>
<path d="M153.355 212.348L152.076 228.76C134.54 223.955 133.59 188.728 133.59 188.728L144.422 207.349L153.277 212.212C153.258 212.232 153.297 212.271 153.355 212.348Z" fill="#1B3D58"/>
<path d="M168.876 206.498C168.876 206.517 168.857 206.537 168.857 206.537C168.857 206.517 168.857 206.498 168.876 206.498C168.876 206.46 168.876 206.46 168.876 206.498Z" fill="#ABDDDA"/>
<path d="M235.746 204.853V230.586C235.746 232.524 234.176 234.074 232.258 234.074H166.279C164.342 234.074 162.792 232.504 162.792 230.586V204.853C162.792 202.916 164.361 201.365 166.279 201.365H232.258C234.176 201.346 235.746 202.916 235.746 204.853Z" fill="#2A4E96"/>
<path d="M176.414 208.233L175.794 208.427L175.639 207.593L176.647 207.187H177.17V211.895H176.395V208.233H176.414Z" fill="#BDD1F9"/>
<path d="M178.913 209.541C178.913 208.185 179.553 207.119 180.483 207.119C181.413 207.119 182.052 208.165 182.052 209.541C182.052 210.898 181.413 211.963 180.483 211.963C179.553 211.963 178.913 210.917 178.913 209.541ZM181.258 209.541C181.258 208.689 180.948 208.049 180.483 208.049C180.018 208.049 179.708 208.669 179.708 209.541C179.708 210.394 180.018 211.033 180.483 211.033C180.948 211.033 181.258 210.413 181.258 209.541Z" fill="#BDD1F9"/>
<path d="M183.622 209.541C183.622 208.185 184.261 207.119 185.191 207.119C186.121 207.119 186.761 208.165 186.761 209.541C186.761 210.898 186.121 211.963 185.191 211.963C184.261 211.963 183.622 210.917 183.622 209.541ZM185.966 209.541C185.966 208.689 185.656 208.049 185.191 208.049C184.726 208.049 184.416 208.669 184.416 209.541C184.416 210.394 184.726 211.033 185.191 211.033C185.656 211.033 185.966 210.413 185.966 209.541Z" fill="#F77D48"/>
<path d="M188.912 208.224L188.292 208.418L188.137 207.585L189.144 207.178H189.668V211.886H188.892V208.224H188.912Z" fill="#F77D48"/>
<path d="M210.285 208.224L209.665 208.418L209.51 207.585L210.517 207.178H211.04V211.886H210.265V208.224H210.285Z" fill="#BDD1F9"/>
<path d="M212.804 209.541C212.804 208.185 213.443 207.119 214.373 207.119C215.304 207.119 215.943 208.165 215.943 209.541C215.943 210.898 215.304 211.963 214.373 211.963C213.424 211.963 212.804 210.917 212.804 209.541ZM215.149 209.541C215.149 208.689 214.839 208.049 214.373 208.049C213.908 208.049 213.598 208.669 213.598 209.541C213.598 210.394 213.908 211.033 214.373 211.033C214.858 211.033 215.149 210.413 215.149 209.541Z" fill="#BDD1F9"/>
<path d="M217.493 209.541C217.493 208.185 218.132 207.119 219.062 207.119C219.993 207.119 220.632 208.165 220.632 209.541C220.632 210.898 219.993 211.963 219.062 211.963C218.132 211.963 217.493 210.917 217.493 209.541ZM219.838 209.541C219.838 208.689 219.528 208.049 219.062 208.049C218.597 208.049 218.287 208.669 218.287 209.541C218.287 210.394 218.597 211.033 219.062 211.033C219.547 211.033 219.838 210.413 219.838 209.541Z" fill="#F77D48"/>
<path d="M222.802 208.224L222.182 208.418L222.027 207.585L223.035 207.178H223.558V211.886H222.783V208.224H222.802Z" fill="#F77D48"/>
<path d="M191.431 209.541C191.431 208.185 192.07 207.119 193 207.119C193.931 207.119 194.57 208.165 194.57 209.541C194.57 210.898 193.931 211.963 193 211.963C192.051 211.963 191.431 210.917 191.431 209.541ZM193.776 209.541C193.776 208.689 193.465 208.049 193 208.049C192.535 208.049 192.225 208.669 192.225 209.541C192.225 210.394 192.535 211.033 193 211.033C193.465 211.033 193.776 210.413 193.776 209.541Z" fill="#BDD1F9"/>
<path d="M196.12 209.541C196.12 208.185 196.76 207.119 197.69 207.119C198.62 207.119 199.259 208.165 199.259 209.541C199.259 210.898 198.62 211.963 197.69 211.963C196.74 211.963 196.12 210.917 196.12 209.541ZM198.465 209.541C198.465 208.689 198.155 208.049 197.69 208.049C197.225 208.049 196.915 208.669 196.915 209.541C196.915 210.394 197.225 211.033 197.69 211.033C198.174 211.033 198.465 210.413 198.465 209.541Z" fill="#BDD1F9"/>
<path d="M200.809 209.541C200.809 208.185 201.449 207.119 202.379 207.119C203.309 207.119 203.948 208.165 203.948 209.541C203.948 210.898 203.309 211.963 202.379 211.963C201.449 211.963 200.809 210.917 200.809 209.541ZM203.154 209.541C203.154 208.689 202.844 208.049 202.379 208.049C201.914 208.049 201.604 208.669 201.604 209.541C201.604 210.394 201.914 211.033 202.379 211.033C202.863 211.033 203.154 210.413 203.154 209.541Z" fill="#BDD1F9"/>
<path d="M205.518 209.541C205.518 208.185 206.157 207.119 207.087 207.119C208.017 207.119 208.657 208.165 208.657 209.541C208.657 210.898 208.017 211.963 207.087 211.963C206.157 211.963 205.518 210.917 205.518 209.541ZM207.862 209.541C207.862 208.689 207.552 208.049 207.087 208.049C206.622 208.049 206.312 208.669 206.312 209.541C206.312 210.394 206.622 211.033 207.087 211.033C207.552 211.033 207.862 210.413 207.862 209.541Z" fill="#BDD1F9"/>
<path d="M176.413 223.513L175.793 223.707L175.638 222.874L176.646 222.467H177.169V227.175H176.394V223.513H176.413Z" fill="#BDD1F9"/>
<path d="M178.913 224.85C178.913 223.493 179.552 222.428 180.482 222.428C181.412 222.428 182.052 223.474 182.052 224.85C182.052 226.206 181.412 227.272 180.482 227.272C179.552 227.272 178.913 226.206 178.913 224.85ZM181.257 224.85C181.257 223.997 180.947 223.358 180.482 223.358C180.017 223.358 179.707 223.978 179.707 224.85C179.707 225.702 180.017 226.342 180.482 226.342C180.947 226.342 181.257 225.702 181.257 224.85Z" fill="#BDD1F9"/>
<path d="M183.621 224.85C183.621 223.493 184.26 222.428 185.19 222.428C186.121 222.428 186.76 223.474 186.76 224.85C186.76 226.206 186.121 227.272 185.19 227.272C184.26 227.272 183.621 226.206 183.621 224.85ZM185.965 224.85C185.965 223.997 185.655 223.358 185.19 223.358C184.725 223.358 184.415 223.978 184.415 224.85C184.415 225.702 184.725 226.342 185.19 226.342C185.655 226.323 185.965 225.702 185.965 224.85Z" fill="#F77D48"/>
<path d="M188.911 223.509L188.291 223.703L188.136 222.87L189.143 222.463H189.667V227.171H188.891V223.509H188.911Z" fill="#F77D48"/>
<path d="M210.284 223.509L209.664 223.703L209.509 222.87L210.516 222.463H211.039V227.171H210.264V223.509H210.284Z" fill="#BDD1F9"/>
<path d="M212.803 224.85C212.803 223.493 213.442 222.428 214.373 222.428C215.303 222.428 215.942 223.474 215.942 224.85C215.942 226.206 215.303 227.272 214.373 227.272C213.423 227.253 212.803 226.206 212.803 224.85ZM215.148 224.85C215.148 223.997 214.838 223.358 214.373 223.358C213.907 223.358 213.597 223.978 213.597 224.85C213.597 225.702 213.907 226.342 214.373 226.342C214.857 226.323 215.148 225.702 215.148 224.85Z" fill="#BDD1F9"/>
<path d="M217.492 224.85C217.492 223.493 218.132 222.428 219.062 222.428C219.992 222.428 220.631 223.474 220.631 224.85C220.631 226.206 219.992 227.272 219.062 227.272C218.132 227.272 217.492 226.206 217.492 224.85ZM219.837 224.85C219.837 223.997 219.527 223.358 219.062 223.358C218.597 223.358 218.287 223.978 218.287 224.85C218.287 225.702 218.597 226.342 219.062 226.342C219.546 226.323 219.837 225.702 219.837 224.85Z" fill="#F77D48"/>
<path d="M222.801 223.509L222.181 223.703L222.026 222.87L223.034 222.463H223.557V227.171H222.782V223.509H222.801Z" fill="#F77D48"/>
<path d="M191.43 224.85C191.43 223.493 192.07 222.428 193 222.428C193.93 222.428 194.569 223.474 194.569 224.85C194.569 226.206 193.93 227.272 193 227.272C192.05 227.253 191.43 226.206 191.43 224.85ZM193.775 224.85C193.775 223.997 193.465 223.358 193 223.358C192.535 223.358 192.225 223.978 192.225 224.85C192.225 225.702 192.535 226.342 193 226.342C193.465 226.323 193.775 225.702 193.775 224.85Z" fill="#BDD1F9"/>
<path d="M196.119 224.85C196.119 223.493 196.759 222.428 197.689 222.428C198.619 222.428 199.258 223.474 199.258 224.85C199.258 226.206 198.619 227.272 197.689 227.272C196.739 227.253 196.119 226.206 196.119 224.85ZM198.464 224.85C198.464 223.997 198.154 223.358 197.689 223.358C197.224 223.358 196.914 223.978 196.914 224.85C196.914 225.702 197.224 226.342 197.689 226.342C198.173 226.323 198.464 225.702 198.464 224.85Z" fill="#BDD1F9"/>
<path d="M200.809 224.85C200.809 223.493 201.448 222.428 202.378 222.428C203.308 222.428 203.948 223.474 203.948 224.85C203.948 226.206 203.308 227.272 202.378 227.272C201.448 227.253 200.809 226.206 200.809 224.85ZM203.153 224.85C203.153 223.997 202.843 223.358 202.378 223.358C201.913 223.358 201.603 223.978 201.603 224.85C201.603 225.702 201.913 226.342 202.378 226.342C202.863 226.323 203.153 225.702 203.153 224.85Z" fill="#BDD1F9"/>
<path d="M205.517 224.85C205.517 223.493 206.156 222.428 207.086 222.428C208.016 222.428 208.656 223.474 208.656 224.85C208.656 226.206 208.016 227.272 207.086 227.272C206.156 227.272 205.517 226.206 205.517 224.85ZM207.861 224.85C207.861 223.997 207.551 223.358 207.086 223.358C206.621 223.358 206.311 223.978 206.311 224.85C206.311 225.702 206.621 226.342 207.086 226.342C207.551 226.323 207.861 225.702 207.861 224.85Z" fill="#BDD1F9"/>
<path d="M192.381 215.855L191.76 216.049L191.605 215.216L192.613 214.809H193.136V219.517H192.361V215.855H192.381Z" fill="#BDD1F9"/>
<path d="M189.145 215.855L188.525 216.049L188.37 215.216L189.377 214.809H189.9V219.517H189.125V215.855H189.145Z" fill="#BDD1F9"/>
<path d="M194.9 217.196C194.9 215.839 195.539 214.773 196.469 214.773C197.399 214.773 198.039 215.82 198.039 217.196C198.039 218.552 197.399 219.618 196.469 219.618C195.539 219.618 194.9 218.571 194.9 217.196ZM197.244 217.196C197.244 216.343 196.934 215.704 196.469 215.704C196.004 215.704 195.694 216.324 195.694 217.196C195.694 218.048 196.004 218.688 196.469 218.688C196.954 218.688 197.244 218.048 197.244 217.196Z" fill="#BDD1F9"/>
<path d="M199.589 217.196C199.589 215.839 200.228 214.773 201.158 214.773C202.088 214.773 202.728 215.82 202.728 217.196C202.728 218.552 202.088 219.618 201.158 219.618C200.209 219.618 199.589 218.571 199.589 217.196ZM201.933 217.196C201.933 216.343 201.623 215.704 201.158 215.704C200.693 215.704 200.383 216.324 200.383 217.196C200.383 218.048 200.693 218.688 201.158 218.688C201.643 218.688 201.933 218.048 201.933 217.196Z" fill="#F77D48"/>
<path d="M204.898 215.855L204.278 216.049L204.123 215.216L205.131 214.809H205.654V219.517H204.879V215.855H204.898Z" fill="#F77D48"/>
<path d="M207.398 217.196C207.398 215.839 208.037 214.773 208.967 214.773C209.898 214.773 210.537 215.82 210.537 217.196C210.537 218.552 209.898 219.618 208.967 219.618C208.037 219.618 207.398 218.571 207.398 217.196ZM209.743 217.196C209.743 216.343 209.433 215.704 208.967 215.704C208.502 215.704 208.192 216.324 208.192 217.196C208.192 218.048 208.502 218.688 208.967 218.688C209.433 218.688 209.743 218.048 209.743 217.196Z" fill="#BDD1F9"/>
<path d="M212.106 217.196C212.106 215.839 212.745 214.773 213.676 214.773C214.606 214.773 215.245 215.82 215.245 217.196C215.245 218.552 214.606 219.618 213.676 219.618C212.726 219.618 212.106 218.571 212.106 217.196ZM214.451 217.196C214.451 216.343 214.141 215.704 213.676 215.704C213.21 215.704 212.9 216.324 212.9 217.196C212.9 218.048 213.21 218.688 213.676 218.688C214.141 218.688 214.451 218.048 214.451 217.196Z" fill="#BDD1F9"/>
<path d="M216.796 217.196C216.796 215.839 217.435 214.773 218.365 214.773C219.295 214.773 219.935 215.82 219.935 217.196C219.935 218.552 219.295 219.618 218.365 219.618C217.435 219.618 216.796 218.571 216.796 217.196ZM219.14 217.196C219.14 216.343 218.83 215.704 218.365 215.704C217.9 215.704 217.59 216.324 217.59 217.196C217.59 218.048 217.9 218.688 218.365 218.688C218.85 218.688 219.14 218.048 219.14 217.196Z" fill="#BDD1F9"/>
<path d="M175.251 217.205C175.251 215.849 175.891 214.783 176.821 214.783C177.751 214.783 178.391 215.83 178.391 217.205C178.391 218.562 177.751 219.627 176.821 219.627C175.891 219.627 175.251 218.581 175.251 217.205ZM177.596 217.205C177.596 216.353 177.286 215.713 176.821 215.713C176.356 215.713 176.046 216.333 176.046 217.205C176.046 218.058 176.356 218.697 176.821 218.697C177.305 218.697 177.596 218.058 177.596 217.205Z" fill="#BDD1F9"/>
<path d="M179.96 217.196C179.96 215.839 180.599 214.773 181.529 214.773C182.46 214.773 183.099 215.82 183.099 217.196C183.099 218.552 182.46 219.618 181.529 219.618C180.599 219.618 179.96 218.571 179.96 217.196ZM182.305 217.196C182.305 216.343 181.995 215.704 181.529 215.704C181.064 215.704 180.754 216.324 180.754 217.196C180.754 218.048 181.064 218.688 181.529 218.688C181.995 218.688 182.305 218.048 182.305 217.196Z" fill="#BDD1F9"/>
<path d="M184.649 217.196C184.649 215.839 185.288 214.773 186.218 214.773C187.149 214.773 187.788 215.82 187.788 217.196C187.788 218.552 187.149 219.618 186.218 219.618C185.288 219.618 184.649 218.571 184.649 217.196ZM186.994 217.196C186.994 216.343 186.684 215.704 186.218 215.704C185.753 215.704 185.443 216.324 185.443 217.196C185.443 218.048 185.753 218.688 186.218 218.688C186.703 218.688 186.994 218.048 186.994 217.196Z" fill="#BDD1F9"/>
<path d="M221.504 217.196C221.504 215.839 222.144 214.773 223.074 214.773C224.004 214.773 224.643 215.82 224.643 217.196C224.643 218.552 224.004 219.618 223.074 219.618C222.144 219.618 221.504 218.571 221.504 217.196ZM223.829 217.196C223.829 216.343 223.519 215.704 223.054 215.704C222.589 215.704 222.279 216.324 222.279 217.196C222.279 218.048 222.589 218.688 223.054 218.688C223.519 218.688 223.829 218.048 223.829 217.196Z" fill="#BDD1F9"/>
<path d="M161.145 213.857L160.467 216.202C160.467 216.202 159.614 216.047 158.277 215.814C157.87 215.737 157.638 215.679 157.638 215.679C156.572 215.485 155.274 215.214 153.878 214.904H153.859C151.456 214.361 148.763 213.702 146.496 212.966C146.302 212.889 146.089 212.83 145.895 212.772C144.558 212.307 143.395 211.803 142.582 211.319C142.485 211.261 142.407 211.203 142.31 211.145C140.063 209.594 147.155 205.835 148.317 206.649C148.627 206.862 148.957 207.075 149.305 207.308C151.243 208.567 153.723 209.963 155.913 211.145C156.998 211.726 158.006 212.268 158.858 212.695C160.253 213.392 161.145 213.857 161.145 213.857Z" fill="#FFB27D"/>
<path d="M149.344 207.292C149.344 207.292 149.479 211.71 145.139 213.861C140.12 212.137 137.427 204.987 135.354 200.084C135.063 199.406 134.792 198.728 134.52 198.069C133.552 195.627 132.796 193.205 132.331 191.113C132.04 189.872 131.846 188.729 131.808 187.799C131.788 187.47 137.621 183.594 138.338 185.067C139.423 187.431 140.585 190.473 141.651 193.515C142.252 195.182 142.814 196.848 143.395 198.379C143.725 199.309 144.054 200.181 144.364 200.995C144.965 202.526 145.488 203.785 145.972 204.56C146.282 205.064 147.154 205.781 148.336 206.595C148.646 206.847 148.995 207.06 149.344 207.292Z" fill="#33668F"/>
<path d="M160.059 213.417C160.059 213.417 162.249 213.959 162.772 213.688C163.295 213.417 165.678 213.029 166.221 213.746C166.938 214.715 167.752 216.575 167.306 217.021C166.86 217.467 165.737 216.226 164.167 216.672C163.373 216.905 161.803 217.564 160.854 216.924C159.904 216.285 158.78 215.335 158.78 215.335L160.059 213.417Z" fill="#FFB27D"/>
<path d="M127.37 60.4543L132.679 60.5899C133.125 60.6093 133.513 60.8612 133.706 61.2681C133.939 61.7719 134.21 62.2951 134.481 62.7795C135.005 63.7096 135.586 64.5816 136.245 65.376C136.555 65.7442 136.594 66.2674 136.361 66.6743L133.648 71.5185C133.358 72.0417 133.513 72.7005 134.016 73.0299L138.221 75.8784C138.706 76.2078 139.345 76.1109 139.713 75.6846L143.027 71.7898C143.337 71.4023 143.879 71.286 144.344 71.4798C146.34 72.313 148.472 72.8168 150.642 72.9912C151.165 73.0299 151.611 73.4369 151.688 73.96L152.211 77.0216C152.308 77.6029 152.832 78.0292 153.432 77.9904L158.47 77.6804C158.567 77.6804 158.664 77.661 158.761 77.6223C159.207 77.4867 159.536 77.0604 159.555 76.5566L159.652 72.5843L159.672 71.6154C160.544 71.2666 161.416 70.8597 162.268 70.3753C163.411 69.7358 164.458 68.9801 165.407 68.1857C165.775 67.8757 166.279 67.8175 166.705 68.05L170.62 70.2396C171.162 70.5303 171.821 70.3753 172.17 69.8715L174.359 66.6549L174.979 65.7248C175.328 65.221 175.231 64.5428 174.766 64.1553L171.511 61.3844C171.123 61.0743 170.988 60.5511 171.182 60.0861C171.705 58.7297 172.092 57.3152 172.325 55.8813C172.364 55.765 172.364 55.6488 172.383 55.5131C172.383 55.4744 172.402 55.4356 172.402 55.3969C172.519 54.9318 172.887 54.6024 173.352 54.5249L178.332 53.6723C178.39 53.6723 178.448 53.6529 178.487 53.6336C178.99 53.4785 179.32 52.9941 179.301 52.4516L178.99 47.4329C178.952 46.8322 178.467 46.3478 177.847 46.3284L172.305 46.1928C171.84 46.1928 171.414 45.8827 171.259 45.4371C170.891 44.4682 170.445 43.5188 169.903 42.5887C169.612 42.0849 169.321 41.6198 169.011 41.1548C168.759 40.7866 168.74 40.2828 168.953 39.8953L171.569 35.2254C171.86 34.7216 171.705 34.0628 171.22 33.714L167.054 30.8849C166.55 30.5362 165.872 30.633 165.465 31.0981L162.83 34.179C162.481 34.586 161.9 34.7022 161.416 34.4697C159.517 33.5008 157.501 32.8614 155.409 32.5126C154.905 32.4351 154.517 32.0476 154.44 31.5438L153.665 27.0483C153.568 26.4476 153.025 26.0213 152.405 26.0601L147.406 26.3701C146.805 26.4088 146.34 26.8933 146.321 27.494V27.7265L146.205 32.3382C146.185 32.842 145.875 33.2489 145.41 33.4233C144.286 33.8109 143.201 34.3147 142.116 34.9347C141.554 35.2641 141.012 35.6129 140.469 35.9811C140.101 36.233 139.616 36.2717 139.229 36.0586L135.257 33.8302C134.714 33.5202 134.036 33.6946 133.687 34.1984L130.877 38.3451C130.8 38.4614 130.742 38.597 130.703 38.7133C130.606 39.1395 130.742 39.6046 131.071 39.8953L133.687 42.1042C133.997 42.3755 134.152 42.8018 134.075 43.2087C134.055 43.3056 134.016 43.4219 133.978 43.5187C132.757 45.9409 132.04 48.5955 131.846 51.3083C131.827 51.7734 131.517 52.1609 131.091 52.3159C131.032 52.3353 130.974 52.3547 130.897 52.374L126.866 53.0522C126.285 53.1491 125.859 53.6723 125.897 54.273V54.3893L126.188 59.2916C126.266 59.9505 126.75 60.4349 127.37 60.4543ZM162.927 50.2038C163.121 50.9983 163.256 51.8315 163.295 52.7228C163.392 54.4086 162.694 56.9664 161.745 58.3615C161.648 58.5166 161.532 58.6522 161.435 58.8072C155.002 67.6044 141.825 63.8646 141.089 52.8391C140.992 51.4052 141.457 49.3706 142.174 47.8786C142.349 47.5298 142.523 47.2198 142.717 46.9485C143.589 45.6696 144.596 44.6426 145.681 43.8482C151.94 39.2946 160.931 42.298 162.927 50.2038Z" fill="#73C0FF"/>
<path d="M292.637 110.21L300.039 109.377C300.659 109.319 301.26 109.61 301.589 110.113C302.016 110.772 302.481 111.431 302.965 112.07C303.876 113.252 304.845 114.357 305.891 115.345C306.376 115.81 306.55 116.508 306.298 117.128L303.469 124.375C303.159 125.15 303.508 126.022 304.263 126.409L310.6 129.568C311.317 129.917 312.189 129.684 312.634 129.006L316.49 122.96C316.859 122.36 317.575 122.088 318.273 122.282C321.199 123.057 324.241 123.367 327.283 123.174C328.02 123.135 328.698 123.6 328.93 124.317L330.229 128.463C330.481 129.258 331.294 129.742 332.108 129.587L339.026 128.192C339.161 128.173 339.297 128.134 339.433 128.057C340.033 127.766 340.402 127.126 340.324 126.429L339.704 120.906L339.549 119.569C340.692 118.93 341.835 118.174 342.901 117.36C344.354 116.256 345.672 115.016 346.835 113.718C347.28 113.214 347.978 113.039 348.598 113.291L354.431 115.578C355.225 115.888 356.136 115.539 356.504 114.783L358.926 109.92L359.604 108.524C359.992 107.769 359.72 106.839 359.004 106.374L353.965 103.157C353.384 102.789 353.094 102.091 353.249 101.432C353.714 99.4367 353.985 97.4021 354.024 95.3869C354.043 95.2125 354.043 95.0381 354.043 94.8831C354.043 94.8249 354.043 94.7668 354.062 94.7087C354.121 94.0499 354.586 93.5073 355.206 93.3135L361.949 91.1821C362.026 91.1627 362.104 91.1239 362.162 91.1046C362.821 90.7945 363.189 90.0388 363.053 89.3219L361.678 82.4237C361.503 81.5904 360.747 81.0285 359.895 81.1254L352.183 81.9974C351.524 82.0749 350.904 81.7455 350.594 81.1641C349.896 79.9046 349.102 78.6645 348.172 77.4631C347.687 76.8237 347.184 76.223 346.66 75.6417C346.234 75.1767 346.118 74.4985 346.35 73.9171L349.082 66.9608C349.393 66.2051 349.044 65.3138 348.307 64.9456L341.99 61.8259C341.235 61.4383 340.305 61.6902 339.84 62.4266L336.797 67.1933C336.391 67.8328 335.615 68.104 334.899 67.8715C332.089 66.9027 329.163 66.3795 326.198 66.302C325.501 66.302 324.881 65.8369 324.667 65.1587L322.749 59.0744C322.497 58.2605 321.664 57.7761 320.811 57.9311L313.933 59.3069C313.099 59.4619 312.537 60.2563 312.654 61.0702L312.692 61.3996L313.409 67.8134C313.487 68.4916 313.138 69.1504 312.518 69.4604C311.045 70.2161 309.612 71.1269 308.255 72.1732C307.519 72.7351 306.841 73.3165 306.182 73.9365C305.717 74.3628 305.058 74.4984 304.477 74.2659L298.567 71.9407C297.753 71.6113 296.842 71.9794 296.455 72.7545L293.354 79.0327C293.257 79.2071 293.219 79.4008 293.199 79.5946C293.141 80.1953 293.412 80.8154 293.936 81.1448L297.966 83.7025C298.45 84.0319 298.741 84.5745 298.722 85.1558C298.722 85.3108 298.683 85.4658 298.644 85.6015C297.423 89.2056 296.92 93.0035 297.191 96.8014C297.249 97.4408 296.881 98.0415 296.319 98.3516C296.241 98.3903 296.144 98.4291 296.067 98.4484L290.603 100.173C289.808 100.425 289.343 101.219 289.498 102.053L289.537 102.208L290.874 108.931C290.99 109.745 291.765 110.307 292.637 110.21ZM339.937 89.225C340.363 90.2907 340.692 91.4146 340.944 92.6353C341.39 94.9606 340.925 98.6228 339.878 100.754C339.762 100.987 339.646 101.2 339.53 101.432C332.302 114.861 313.332 112.187 310.212 97.0339C309.805 95.0575 310.057 92.1703 310.774 89.9613C310.949 89.4575 311.123 88.9731 311.336 88.5662C312.305 86.6285 313.506 85.0202 314.863 83.7025C322.652 76.223 335.654 78.6645 339.937 89.225Z" fill="#73C0FF"/>
</svg>
